<?xml version="1.0" encoding="us-ascii" standalone="no"?><svg xmlns="http://www.w3.org/2000/svg" xmlns:xlink="http://www.w3.org/1999/xlink" contentStyleType="text/css" height="1433px" preserveAspectRatio="none" style="width:1555px;height:1433px;background:#FFFFFF;" version="1.1" viewBox="0 0 1555 1433" width="1555px" zoomAndPan="magnify"><defs/><g><rect fill="none" height="888.2715" style="stroke:#000000;stroke-width:1.5;" width="1528" x="10" y="331.6621"/><rect fill="none" height="134.5527" style="stroke:#000000;stroke-width:1.5;" width="406" x="512" y="414.5938"/><rect fill="none" height="105.2422" style="stroke:#000000;stroke-width:1.5;" width="1279" x="135" y="797.6309"/><rect fill="none" height="75.9316" style="stroke:#000000;stroke-width:1.5;" width="261" x="1083" y="1019.7598"/><line style="stroke:#181818;stroke-width:0.5;stroke-dasharray:5.0,5.0;" x1="44" x2="44" y1="81.4883" y2="1352.8652"/><line style="stroke:#181818;stroke-width:0.5;stroke-dasharray:5.0,5.0;" x1="207" x2="207" y1="81.4883" y2="1352.8652"/><line style="stroke:#181818;stroke-width:0.5;stroke-dasharray:5.0,5.0;" x1="344" x2="344" y1="81.4883" y2="1352.8652"/><line style="stroke:#181818;stroke-width:0.5;stroke-dasharray:5.0,5.0;" x1="465" x2="465" y1="81.4883" y2="1352.8652"/><line style="stroke:#181818;stroke-width:0.5;stroke-dasharray:5.0,5.0;" x1="564" x2="564" y1="81.4883" y2="1352.8652"/><line style="stroke:#181818;stroke-width:0.5;stroke-dasharray:5.0,5.0;" x1="699" x2="699" y1="81.4883" y2="1352.8652"/><line style="stroke:#181818;stroke-width:0.5;stroke-dasharray:5.0,5.0;" x1="793" x2="793" y1="81.4883" y2="1352.8652"/><line style="stroke:#181818;stroke-width:0.5;stroke-dasharray:5.0,5.0;" x1="873" x2="873" y1="81.4883" y2="1352.8652"/><line style="stroke:#181818;stroke-width:0.5;stroke-dasharray:5.0,5.0;" x1="953" x2="953" y1="81.4883" y2="1352.8652"/><line style="stroke:#181818;stroke-width:0.5;stroke-dasharray:5.0,5.0;" x1="1041" x2="1041" y1="81.4883" y2="1352.8652"/><line style="stroke:#181818;stroke-width:0.5;stroke-dasharray:5.0,5.0;" x1="1127" x2="1127" y1="81.4883" y2="1352.8652"/><line style="stroke:#181818;stroke-width:0.5;stroke-dasharray:5.0,5.0;" x1="1213" x2="1213" y1="81.4883" y2="1352.8652"/><line style="stroke:#181818;stroke-width:0.5;stroke-dasharray:5.0,5.0;" x1="1302" x2="1302" y1="81.4883" y2="1352.8652"/><line style="stroke:#181818;stroke-width:0.5;stroke-dasharray:5.0,5.0;" x1="1378" x2="1378" y1="81.4883" y2="1352.8652"/><line style="stroke:#181818;stroke-width:0.5;stroke-dasharray:5.0,5.0;" x1="1471" x2="1471" y1="81.4883" y2="1352.8652"/><text fill="#000000" font-family="sans-serif" font-size="14" lengthAdjust="spacing" textLength="42" x="20" y="78.5352">&#27983;&#35272;&#22120;</text><ellipse cx="44" cy="13.5" fill="#E2E2F0" rx="8" ry="8" style="stroke:#181818;stroke-width:0.5;"/><path d="M44,21.5 L44,48.5 M31,29.5 L57,29.5 M44,48.5 L31,63.5 M44,48.5 L57,63.5 " fill="none" style="stroke:#181818;stroke-width:0.5;"/><text fill="#000000" font-family="sans-serif" font-size="14" lengthAdjust="spacing" textLength="42" x="20" y="1365.4004">&#27983;&#35272;&#22120;</text><ellipse cx="44" cy="1376.8535" fill="#E2E2F0" rx="8" ry="8" style="stroke:#181818;stroke-width:0.5;"/><path d="M44,1384.8535 L44,1411.8535 M31,1392.8535 L57,1392.8535 M44,1411.8535 L31,1426.8535 M44,1411.8535 L57,1426.8535 " fill="none" style="stroke:#181818;stroke-width:0.5;"/><rect fill="#E2E2F0" height="30.4883" rx="2.5" ry="2.5" style="stroke:#181818;stroke-width:0.5;" width="124" x="145" y="50"/><text fill="#000000" font-family="sans-serif" font-size="14" lengthAdjust="spacing" textLength="110" x="152" y="70.5352">API&#32593;&#20851;(FastAPI)</text><rect fill="#E2E2F0" height="30.4883" rx="2.5" ry="2.5" style="stroke:#181818;stroke-width:0.5;" width="124" x="145" y="1351.8652"/><text fill="#000000" font-family="sans-serif" font-size="14" lengthAdjust="spacing" textLength="110" x="152" y="1372.4004">API&#32593;&#20851;(FastAPI)</text><rect fill="#E2E2F0" height="30.4883" rx="2.5" ry="2.5" style="stroke:#181818;stroke-width:0.5;" width="130" x="279" y="50"/><text fill="#000000" font-family="sans-serif" font-size="14" lengthAdjust="spacing" textLength="116" x="286" y="70.5352">WebSocket&#31649;&#29702;&#22120;</text><rect fill="#E2E2F0" height="30.4883" rx="2.5" ry="2.5" style="stroke:#181818;stroke-width:0.5;" width="130" x="279" y="1351.8652"/><text fill="#000000" font-family="sans-serif" font-size="14" lengthAdjust="spacing" textLength="116" x="286" y="1372.4004">WebSocket&#31649;&#29702;&#22120;</text><rect fill="#E2E2F0" height="30.4883" rx="2.5" ry="2.5" style="stroke:#181818;stroke-width:0.5;" width="93" x="419" y="50"/><text fill="#000000" font-family="sans-serif" font-size="14" lengthAdjust="spacing" textLength="79" x="426" y="70.5352">Redis&#35746;&#38405;&#22120;</text><rect fill="#E2E2F0" height="30.4883" rx="2.5" ry="2.5" style="stroke:#181818;stroke-width:0.5;" width="93" x="419" y="1351.8652"/><text fill="#000000" font-family="sans-serif" font-size="14" lengthAdjust="spacing" textLength="79" x="426" y="1372.4004">Redis&#35746;&#38405;&#22120;</text><rect fill="#E2E2F0" height="30.4883" rx="2.5" ry="2.5" style="stroke:#181818;stroke-width:0.5;" width="84" x="522" y="50"/><text fill="#000000" font-family="sans-serif" font-size="14" lengthAdjust="spacing" textLength="70" x="529" y="70.5352">&#21160;&#24577;&#25511;&#21046;&#22120;</text><rect fill="#E2E2F0" height="30.4883" rx="2.5" ry="2.5" style="stroke:#181818;stroke-width:0.5;" width="84" x="522" y="1351.8652"/><text fill="#000000" font-family="sans-serif" font-size="14" lengthAdjust="spacing" textLength="70" x="529" y="1372.4004">&#21160;&#24577;&#25511;&#21046;&#22120;</text><rect fill="#E2E2F0" height="30.4883" rx="2.5" ry="2.5" style="stroke:#181818;stroke-width:0.5;" width="98" x="650" y="50"/><text fill="#000000" font-family="sans-serif" font-size="14" lengthAdjust="spacing" textLength="84" x="657" y="70.5352">&#29992;&#25143;&#29366;&#24577;&#26381;&#21153;</text><rect fill="#E2E2F0" height="30.4883" rx="2.5" ry="2.5" style="stroke:#181818;stroke-width:0.5;" width="98" x="650" y="1351.8652"/><text fill="#000000" font-family="sans-serif" font-size="14" lengthAdjust="spacing" textLength="84" x="657" y="1372.4004">&#29992;&#25143;&#29366;&#24577;&#26381;&#21153;</text><rect fill="#E2E2F0" height="30.4883" rx="2.5" ry="2.5" style="stroke:#181818;stroke-width:0.5;" width="70" x="758" y="50"/><text fill="#000000" font-family="sans-serif" font-size="14" lengthAdjust="spacing" textLength="56" x="765" y="70.5352">&#24773;&#24863;&#20998;&#26512;</text><rect fill="#E2E2F0" height="30.4883" rx="2.5" ry="2.5" style="stroke:#181818;stroke-width:0.5;" width="70" x="758" y="1351.8652"/><text fill="#000000" font-family="sans-serif" font-size="14" lengthAdjust="spacing" textLength="56" x="765" y="1372.4004">&#24773;&#24863;&#20998;&#26512;</text><rect fill="#E2E2F0" height="30.4883" rx="2.5" ry="2.5" style="stroke:#181818;stroke-width:0.5;" width="70" x="838" y="50"/><text fill="#000000" font-family="sans-serif" font-size="14" lengthAdjust="spacing" textLength="56" x="845" y="70.5352">&#36827;&#24230;&#32858;&#31867;</text><rect fill="#E2E2F0" height="30.4883" rx="2.5" ry="2.5" style="stroke:#181818;stroke-width:0.5;" width="70" x="838" y="1351.8652"/><text fill="#000000" font-family="sans-serif" font-size="14" lengthAdjust="spacing" textLength="56" x="845" y="1372.4004">&#36827;&#24230;&#32858;&#31867;</text><rect fill="#E2E2F0" height="30.4883" rx="2.5" ry="2.5" style="stroke:#181818;stroke-width:0.5;" width="71" x="918" y="50"/><text fill="#000000" font-family="sans-serif" font-size="14" lengthAdjust="spacing" textLength="57" x="925" y="70.5352">RAG&#26816;&#32034;</text><rect fill="#E2E2F0" height="30.4883" rx="2.5" ry="2.5" style="stroke:#181818;stroke-width:0.5;" width="71" x="918" y="1351.8652"/><text fill="#000000" font-family="sans-serif" font-size="14" lengthAdjust="spacing" textLength="57" x="925" y="1372.4004">RAG&#26816;&#32034;</text><rect fill="#E2E2F0" height="30.4883" rx="2.5" ry="2.5" style="stroke:#181818;stroke-width:0.5;" width="84" x="999" y="50"/><text fill="#000000" font-family="sans-serif" font-size="14" lengthAdjust="spacing" textLength="70" x="1006" y="70.5352">&#25552;&#31034;&#35789;&#29983;&#25104;</text><rect fill="#E2E2F0" height="30.4883" rx="2.5" ry="2.5" style="stroke:#181818;stroke-width:0.5;" width="84" x="999" y="1351.8652"/><text fill="#000000" font-family="sans-serif" font-size="14" lengthAdjust="spacing" textLength="70" x="1006" y="1372.4004">&#25552;&#31034;&#35789;&#29983;&#25104;</text><rect fill="#E2E2F0" height="30.4883" rx="2.5" ry="2.5" style="stroke:#181818;stroke-width:0.5;" width="68" x="1093" y="50"/><text fill="#000000" font-family="sans-serif" font-size="14" lengthAdjust="spacing" textLength="54" x="1100" y="70.5352">LLM&#32593;&#20851;</text><rect fill="#E2E2F0" height="30.4883" rx="2.5" ry="2.5" style="stroke:#181818;stroke-width:0.5;" width="68" x="1093" y="1351.8652"/><text fill="#000000" font-family="sans-serif" font-size="14" lengthAdjust="spacing" textLength="54" x="1100" y="1372.4004">LLM&#32593;&#20851;</text><rect fill="#E2E2F0" height="30.4883" rx="2.5" ry="2.5" style="stroke:#181818;stroke-width:0.5;" width="85" x="1171" y="50"/><text fill="#000000" font-family="sans-serif" font-size="14" lengthAdjust="spacing" textLength="71" x="1178" y="70.5352">Celery&#38431;&#21015;</text><rect fill="#E2E2F0" height="30.4883" rx="2.5" ry="2.5" style="stroke:#181818;stroke-width:0.5;" width="85" x="1171" y="1351.8652"/><text fill="#000000" font-family="sans-serif" font-size="14" lengthAdjust="spacing" textLength="71" x="1178" y="1372.4004">Celery&#38431;&#21015;</text><rect fill="#E2E2F0" height="30.4883" rx="2.5" ry="2.5" style="stroke:#181818;stroke-width:0.5;" width="63" x="1271" y="50"/><text fill="#000000" font-family="sans-serif" font-size="14" lengthAdjust="spacing" textLength="49" x="1278" y="70.5352">Worker</text><rect fill="#E2E2F0" height="30.4883" rx="2.5" ry="2.5" style="stroke:#181818;stroke-width:0.5;" width="63" x="1271" y="1351.8652"/><text fill="#000000" font-family="sans-serif" font-size="14" lengthAdjust="spacing" textLength="49" x="1278" y="1372.4004">Worker</text><text fill="#000000" font-family="sans-serif" font-size="14" lengthAdjust="spacing" textLength="45" x="1353" y="78.5352">MySQL</text><path d="M1360.5,29 C1360.5,19 1378.5,19 1378.5,19 C1378.5,19 1396.5,19 1396.5,29 L1396.5,55 C1396.5,65 1378.5,65 1378.5,65 C1378.5,65 1360.5,65 1360.5,55 L1360.5,29 " fill="#E2E2F0" style="stroke:#181818;stroke-width:1.5;"/><path d="M1360.5,29 C1360.5,39 1378.5,39 1378.5,39 C1378.5,39 1396.5,39 1396.5,29 " fill="none" style="stroke:#181818;stroke-width:1.5;"/><text fill="#000000" font-family="sans-serif" font-size="14" lengthAdjust="spacing" textLength="45" x="1353" y="1365.4004">MySQL</text><path d="M1360.5,1378.3535 C1360.5,1368.3535 1378.5,1368.3535 1378.5,1368.3535 C1378.5,1368.3535 1396.5,1368.3535 1396.5,1378.3535 L1396.5,1404.3535 C1396.5,1414.3535 1378.5,1414.3535 1378.5,1414.3535 C1378.5,1414.3535 1360.5,1414.3535 1360.5,1404.3535 L1360.5,1378.3535 " fill="#E2E2F0" style="stroke:#181818;stroke-width:1.5;"/><path d="M1360.5,1378.3535 C1360.5,1388.3535 1378.5,1388.3535 1378.5,1388.3535 C1378.5,1388.3535 1396.5,1388.3535 1396.5,1378.3535 " fill="none" style="stroke:#181818;stroke-width:1.5;"/><rect fill="#E2E2F0" height="30.4883" rx="2.5" ry="2.5" style="stroke:#181818;stroke-width:0.5;" width="114" x="1414" y="50"/><text fill="#000000" font-family="sans-serif" font-size="14" lengthAdjust="spacing" textLength="100" x="1421" y="70.5352">Redis Pub/Sub</text><rect fill="#E2E2F0" height="30.4883" rx="2.5" ry="2.5" style="stroke:#181818;stroke-width:0.5;" width="114" x="1414" y="1351.8652"/><text fill="#000000" font-family="sans-serif" font-size="14" lengthAdjust="spacing" textLength="100" x="1421" y="1372.4004">Redis Pub/Sub</text><rect fill="#EEEEEE" height="3" style="stroke:#EEEEEE;stroke-width:1.0;" width="1548" x="0" y="112.1436"/><line style="stroke:#000000;stroke-width:1.0;" x1="0" x2="1548" y1="112.1436" y2="112.1436"/><line style="stroke:#000000;stroke-width:1.0;" x1="0" x2="1548" y1="115.1436" y2="115.1436"/><rect fill="#EEEEEE" height="23.3105" style="stroke:#000000;stroke-width:2.0;" width="70" x="739" y="101.4883"/><text fill="#000000" font-family="sans-serif" font-size="13" font-weight="bold" lengthAdjust="spacing" textLength="52" x="745" y="118.0566">&#20250;&#35805;&#24314;&#31435;</text><polygon fill="#181818" points="195,152.1094,205,156.1094,195,160.1094,199,156.1094" style="stroke:#181818;stroke-width:1.0;"/><line style="stroke:#181818;stroke-width:1.0;" x1="44" x2="201" y1="156.1094" y2="156.1094"/><text fill="#000000" font-family="sans-serif" font-size="13" lengthAdjust="spacing" textLength="98" x="51" y="151.3672">&#30331;&#24405;/&#20250;&#35805;&#21021;&#22987;&#21270;</text><polygon fill="#181818" points="687,181.4199,697,185.4199,687,189.4199,691,185.4199" style="stroke:#181818;stroke-width:1.0;"/><line style="stroke:#181818;stroke-width:1.0;" x1="207" x2="693" y1="185.4199" y2="185.4199"/><text fill="#000000" font-family="sans-serif" font-size="13" lengthAdjust="spacing" textLength="117" x="214" y="180.6777">&#33719;&#21462;&#25110;&#21019;&#24314;&#29992;&#25143;&#26723;&#26696;</text><polygon fill="#181818" points="218,210.7305,208,214.7305,218,218.7305,214,214.7305" style="stroke:#181818;stroke-width:1.0;"/><line style="stroke:#181818;stroke-width:1.0;stroke-dasharray:2.0,2.0;" x1="212" x2="698" y1="214.7305" y2="214.7305"/><text fill="#000000" font-family="sans-serif" font-size="13" lengthAdjust="spacing" textLength="78" x="224" y="209.9883">&#36820;&#22238;&#29992;&#25143;&#30011;&#20687;</text><polygon fill="#181818" points="332,240.041,342,244.041,332,248.041,336,244.041" style="stroke:#181818;stroke-width:1.0;"/><line style="stroke:#181818;stroke-width:1.0;" x1="44" x2="338" y1="244.041" y2="244.041"/><text fill="#000000" font-family="sans-serif" font-size="13" lengthAdjust="spacing" textLength="120" x="51" y="239.2988">&#24314;&#31435;WebSocket&#36830;&#25509;</text><rect fill="#EEEEEE" height="3" style="stroke:#EEEEEE;stroke-width:1.0;" width="1548" x="0" y="272.6963"/><line style="stroke:#000000;stroke-width:1.0;" x1="0" x2="1548" y1="272.6963" y2="272.6963"/><line style="stroke:#000000;stroke-width:1.0;" x1="0" x2="1548" y1="275.6963" y2="275.6963"/><rect fill="#EEEEEE" height="23.3105" style="stroke:#000000;stroke-width:2.0;" width="96" x="726" y="262.041"/><text fill="#000000" font-family="sans-serif" font-size="13" font-weight="bold" lengthAdjust="spacing" textLength="78" x="732" y="278.6094">&#21457;&#36215;&#19994;&#21153;&#35831;&#27714;</text><polygon fill="#181818" points="195,312.6621,205,316.6621,195,320.6621,199,316.6621" style="stroke:#181818;stroke-width:1.0;"/><line style="stroke:#181818;stroke-width:1.0;" x1="44" x2="201" y1="316.6621" y2="316.6621"/><text fill="#000000" font-family="sans-serif" font-size="13" lengthAdjust="spacing" textLength="118" x="51" y="311.9199">&#23398;&#20064;/&#23545;&#35805;/&#35780;&#27979;&#35831;&#27714;</text><path d="M10,331.6621 L72,331.6621 L72,338.9727 L62,348.9727 L10,348.9727 L10,331.6621 " fill="#EEEEEE" style="stroke:#000000;stroke-width:1.5;"/><rect fill="none" height="888.2715" style="stroke:#000000;stroke-width:1.5;" width="1528" x="10" y="331.6621"/><text fill="#000000" font-family="sans-serif" font-size="13" font-weight="bold" lengthAdjust="spacing" textLength="17" x="25" y="345.2305">alt</text><text fill="#000000" font-family="sans-serif" font-size="11" font-weight="bold" lengthAdjust="spacing" textLength="118" x="87" y="344.2969">[&#21516;&#27493;&#36335;&#24452;&#65288;&#36731;&#37327;&#35831;&#27714;&#65289;]</text><polygon fill="#181818" points="552,366.2832,562,370.2832,552,374.2832,556,370.2832" style="stroke:#181818;stroke-width:1.0;"/><line style="stroke:#181818;stroke-width:1.0;" x1="207" x2="558" y1="370.2832" y2="370.2832"/><text fill="#000000" font-family="sans-serif" font-size="13" lengthAdjust="spacing" textLength="78" x="214" y="365.541">&#35302;&#21457;&#26381;&#21153;&#32534;&#25490;</text><polygon fill="#181818" points="687,395.5938,697,399.5938,687,403.5938,691,399.5938" style="stroke:#181818;stroke-width:1.0;"/><line style="stroke:#181818;stroke-width:1.0;" x1="564" x2="693" y1="399.5938" y2="399.5938"/><text fill="#000000" font-family="sans-serif" font-size="13" lengthAdjust="spacing" textLength="111" x="571" y="394.8516">&#26356;&#26032;&#35745;&#25968;/&#35835;&#21462;&#30011;&#20687;</text><path d="M512,414.5938 L579,414.5938 L579,421.9043 L569,431.9043 L512,431.9043 L512,414.5938 " fill="#EEEEEE" style="stroke:#000000;stroke-width:1.5;"/><rect fill="none" height="134.5527" style="stroke:#000000;stroke-width:1.5;" width="406" x="512" y="414.5938"/><text fill="#000000" font-family="sans-serif" font-size="13" font-weight="bold" lengthAdjust="spacing" textLength="22" x="527" y="428.1621">opt</text><text fill="#000000" font-family="sans-serif" font-size="11" font-weight="bold" lengthAdjust="spacing" textLength="162" x="594" y="427.2285">[&#24773;&#24863;&#19982;&#36827;&#24230;&#20998;&#26512;&#65288;&#25353;&#31574;&#30053;&#33410;&#27969;&#65289;]</text><polygon fill="#181818" points="781,449.2148,791,453.2148,781,457.2148,785,453.2148" style="stroke:#181818;stroke-width:1.0;"/><line style="stroke:#181818;stroke-width:1.0;" x1="564" x2="787" y1="453.2148" y2="453.2148"/><text fill="#000000" font-family="sans-serif" font-size="13" lengthAdjust="spacing" textLength="52" x="571" y="448.4727">&#24773;&#24863;&#20998;&#26512;</text><polygon fill="#181818" points="575,478.5254,565,482.5254,575,486.5254,571,482.5254" style="stroke:#181818;stroke-width:1.0;"/><line style="stroke:#181818;stroke-width:1.0;stroke-dasharray:2.0,2.0;" x1="569" x2="792" y1="482.5254" y2="482.5254"/><text fill="#000000" font-family="sans-serif" font-size="13" lengthAdjust="spacing" textLength="52" x="581" y="477.7832">&#24773;&#24863;&#32467;&#26524;</text><polygon fill="#181818" points="861,507.8359,871,511.8359,861,515.8359,865,511.8359" style="stroke:#181818;stroke-width:1.0;"/><line style="stroke:#181818;stroke-width:1.0;" x1="564" x2="867" y1="511.8359" y2="511.8359"/><text fill="#000000" font-family="sans-serif" font-size="13" lengthAdjust="spacing" textLength="52" x="571" y="507.0938">&#36827;&#24230;&#32858;&#31867;</text><polygon fill="#181818" points="575,537.1465,565,541.1465,575,545.1465,571,541.1465" style="stroke:#181818;stroke-width:1.0;"/><line style="stroke:#181818;stroke-width:1.0;stroke-dasharray:2.0,2.0;" x1="569" x2="872" y1="541.1465" y2="541.1465"/><text fill="#000000" font-family="sans-serif" font-size="13" lengthAdjust="spacing" textLength="52" x="581" y="536.4043">&#32858;&#31867;&#32467;&#26524;</text><polygon fill="#181818" points="941.5,573.457,951.5,577.457,941.5,581.457,945.5,577.457" style="stroke:#181818;stroke-width:1.0;"/><line style="stroke:#181818;stroke-width:1.0;" x1="564" x2="947.5" y1="577.457" y2="577.457"/><text fill="#000000" font-family="sans-serif" font-size="13" lengthAdjust="spacing" textLength="130" x="571" y="572.7148">&#30456;&#20851;&#30693;&#35782;&#21484;&#22238;&#65288;&#21487;&#36873;&#65289;</text><polygon fill="#181818" points="575,602.7676,565,606.7676,575,610.7676,571,606.7676" style="stroke:#181818;stroke-width:1.0;"/><line style="stroke:#181818;stroke-width:1.0;stroke-dasharray:2.0,2.0;" x1="569" x2="952.5" y1="606.7676" y2="606.7676"/><text fill="#000000" font-family="sans-serif" font-size="13" lengthAdjust="spacing" textLength="52" x="581" y="602.0254">&#26816;&#32034;&#29255;&#27573;</text><polygon fill="#181818" points="1029,632.0781,1039,636.0781,1029,640.0781,1033,636.0781" style="stroke:#181818;stroke-width:1.0;"/><line style="stroke:#181818;stroke-width:1.0;" x1="564" x2="1035" y1="636.0781" y2="636.0781"/><text fill="#000000" font-family="sans-serif" font-size="13" lengthAdjust="spacing" textLength="65" x="571" y="631.3359">&#29983;&#25104;&#25552;&#31034;&#35789;</text><polygon fill="#181818" points="575,661.3887,565,665.3887,575,669.3887,571,665.3887" style="stroke:#181818;stroke-width:1.0;"/><line style="stroke:#181818;stroke-width:1.0;stroke-dasharray:2.0,2.0;" x1="569" x2="1040" y1="665.3887" y2="665.3887"/><text fill="#000000" font-family="sans-serif" font-size="13" lengthAdjust="spacing" textLength="52" x="581" y="660.6465">&#25351;&#20196;&#27169;&#26495;</text><polygon fill="#181818" points="1115,690.6992,1125,694.6992,1115,698.6992,1119,694.6992" style="stroke:#181818;stroke-width:1.0;"/><line style="stroke:#181818;stroke-width:1.0;" x1="564" x2="1121" y1="694.6992" y2="694.6992"/><text fill="#000000" font-family="sans-serif" font-size="13" lengthAdjust="spacing" textLength="52" x="571" y="689.957">&#25512;&#29702;&#29983;&#25104;</text><polygon fill="#181818" points="575,720.0098,565,724.0098,575,728.0098,571,724.0098" style="stroke:#181818;stroke-width:1.0;"/><line style="stroke:#181818;stroke-width:1.0;stroke-dasharray:2.0,2.0;" x1="569" x2="1126" y1="724.0098" y2="724.0098"/><text fill="#000000" font-family="sans-serif" font-size="13" lengthAdjust="spacing" textLength="39" x="581" y="719.2676">AI&#31572;&#22797;</text><polygon fill="#181818" points="218,749.3203,208,753.3203,218,757.3203,214,753.3203" style="stroke:#181818;stroke-width:1.0;"/><line style="stroke:#181818;stroke-width:1.0;stroke-dasharray:2.0,2.0;" x1="212" x2="563" y1="753.3203" y2="753.3203"/><text fill="#000000" font-family="sans-serif" font-size="13" lengthAdjust="spacing" textLength="65" x="224" y="748.5781">&#32467;&#26500;&#21270;&#32467;&#26524;</text><polygon fill="#181818" points="55,778.6309,45,782.6309,55,786.6309,51,782.6309" style="stroke:#181818;stroke-width:1.0;"/><line style="stroke:#181818;stroke-width:1.0;stroke-dasharray:2.0,2.0;" x1="49" x2="206" y1="782.6309" y2="782.6309"/><text fill="#000000" font-family="sans-serif" font-size="13" lengthAdjust="spacing" textLength="52" x="61" y="777.8887">&#21516;&#27493;&#21709;&#24212;</text><path d="M135,797.6309 L203,797.6309 L203,804.9414 L193,814.9414 L135,814.9414 L135,797.6309 " fill="#EEEEEE" style="stroke:#000000;stroke-width:1.5;"/><rect fill="none" height="105.2422" style="stroke:#000000;stroke-width:1.5;" width="1279" x="135" y="797.6309"/><text fill="#000000" font-family="sans-serif" font-size="13" font-weight="bold" lengthAdjust="spacing" textLength="23" x="150" y="811.1992">par</text><text fill="#000000" font-family="sans-serif" font-size="11" font-weight="bold" lengthAdjust="spacing" textLength="52" x="218" y="810.2656">[&#24322;&#27493;&#33853;&#24211;]</text><polygon fill="#181818" points="1201.5,832.252,1211.5,836.252,1201.5,840.252,1205.5,836.252" style="stroke:#181818;stroke-width:1.0;"/><line style="stroke:#181818;stroke-width:1.0;" x1="207" x2="1207.5" y1="836.252" y2="836.252"/><text fill="#000000" font-family="sans-serif" font-size="13" lengthAdjust="spacing" textLength="119" x="214" y="831.5098">&#25552;&#20132; db_writer &#20219;&#21153;</text><polygon fill="#181818" points="1290.5,861.5625,1300.5,865.5625,1290.5,869.5625,1294.5,865.5625" style="stroke:#181818;stroke-width:1.0;"/><line style="stroke:#181818;stroke-width:1.0;" x1="1213.5" x2="1296.5" y1="865.5625" y2="865.5625"/><text fill="#000000" font-family="sans-serif" font-size="13" lengthAdjust="spacing" textLength="52" x="1220.5" y="860.8203">&#25289;&#21462;&#20219;&#21153;</text><polygon fill="#181818" points="1366.5,890.873,1376.5,894.873,1366.5,898.873,1370.5,894.873" style="stroke:#181818;stroke-width:1.0;"/><line style="stroke:#181818;stroke-width:1.0;" x1="1302.5" x2="1372.5" y1="894.873" y2="894.873"/><text fill="#000000" font-family="sans-serif" font-size="13" lengthAdjust="spacing" textLength="52" x="1309.5" y="890.1309">&#24130;&#31561;&#20889;&#20837;</text><line style="stroke:#000000;stroke-width:1.0;stroke-dasharray:2.0,2.0;" x1="10" x2="1538" y1="910.873" y2="910.873"/><text fill="#000000" font-family="sans-serif" font-size="11" font-weight="bold" lengthAdjust="spacing" textLength="135" x="15" y="921.5078">[&#24322;&#27493;&#36335;&#24452;&#65288;&#38271;&#32791;&#26102;/&#35780;&#27979;&#65289;]</text><polygon fill="#181818" points="1201.5,942.1387,1211.5,946.1387,1201.5,950.1387,1205.5,946.1387" style="stroke:#181818;stroke-width:1.0;"/><line style="stroke:#181818;stroke-width:1.0;" x1="207" x2="1207.5" y1="946.1387" y2="946.1387"/><text fill="#000000" font-family="sans-serif" font-size="13" lengthAdjust="spacing" textLength="199" x="214" y="941.3965">&#25237;&#36882; chat/submit/behavior &#20219;&#21153;</text><polygon fill="#181818" points="55,971.4492,45,975.4492,55,979.4492,51,975.4492" style="stroke:#181818;stroke-width:1.0;"/><line style="stroke:#181818;stroke-width:1.0;stroke-dasharray:2.0,2.0;" x1="49" x2="206" y1="975.4492" y2="975.4492"/><text fill="#000000" font-family="sans-serif" font-size="13" lengthAdjust="spacing" textLength="139" x="61" y="970.707">202 &#24050;&#21463;&#29702;&#65288;task_id&#65289;</text><polygon fill="#181818" points="1290.5,1000.7598,1300.5,1004.7598,1290.5,1008.7598,1294.5,1004.7598" style="stroke:#181818;stroke-width:1.0;"/><line style="stroke:#181818;stroke-width:1.0;" x1="1213.5" x2="1296.5" y1="1004.7598" y2="1004.7598"/><text fill="#000000" font-family="sans-serif" font-size="13" lengthAdjust="spacing" textLength="65" x="1220.5" y="1000.0176">&#25289;&#21462;&#24182;&#25191;&#34892;</text><path d="M1083,1019.7598 L1213,1019.7598 L1213,1027.0703 L1203,1037.0703 L1083,1037.0703 L1083,1019.7598 " fill="#EEEEEE" style="stroke:#000000;stroke-width:1.5;"/><rect fill="none" height="75.9316" style="stroke:#000000;stroke-width:1.5;" width="261" x="1083" y="1019.7598"/><text fill="#000000" font-family="sans-serif" font-size="13" font-weight="bold" lengthAdjust="spacing" textLength="85" x="1098" y="1033.3281">&#25512;&#29702;/&#35780;&#27979;&#25191;&#34892;</text><polygon fill="#181818" points="1138,1054.3809,1128,1058.3809,1138,1062.3809,1134,1058.3809" style="stroke:#181818;stroke-width:1.0;"/><line style="stroke:#181818;stroke-width:1.0;" x1="1132" x2="1301.5" y1="1058.3809" y2="1058.3809"/><text fill="#000000" font-family="sans-serif" font-size="13" lengthAdjust="spacing" textLength="99" x="1144" y="1053.6387">&#25512;&#29702; &#25110; &#27801;&#31665;&#35780;&#27979;</text><polygon fill="#181818" points="1290.5,1083.6914,1300.5,1087.6914,1290.5,1091.6914,1294.5,1087.6914" style="stroke:#181818;stroke-width:1.0;"/><line style="stroke:#181818;stroke-width:1.0;stroke-dasharray:2.0,2.0;" x1="1127" x2="1296.5" y1="1087.6914" y2="1087.6914"/><text fill="#000000" font-family="sans-serif" font-size="13" lengthAdjust="spacing" textLength="59" x="1134" y="1082.9492">&#32467;&#26524;/&#26085;&#24535;</text><polygon fill="#181818" points="1459,1120.002,1469,1124.002,1459,1128.002,1463,1124.002" style="stroke:#181818;stroke-width:1.0;"/><line style="stroke:#181818;stroke-width:1.0;" x1="1302.5" x2="1465" y1="1124.002" y2="1124.002"/><text fill="#000000" font-family="sans-serif" font-size="13" lengthAdjust="spacing" textLength="141" x="1309.5" y="1119.2598">&#21457;&#24067;&#32467;&#26524;&#21040; ws:user:{id}</text><polygon fill="#181818" points="476.5,1149.3125,466.5,1153.3125,476.5,1157.3125,472.5,1153.3125" style="stroke:#181818;stroke-width:1.0;"/><line style="stroke:#181818;stroke-width:1.0;" x1="470.5" x2="1470" y1="1153.3125" y2="1153.3125"/><text fill="#000000" font-family="sans-serif" font-size="13" lengthAdjust="spacing" textLength="52" x="482.5" y="1148.5703">&#20107;&#20214;&#36890;&#30693;</text><polygon fill="#181818" points="355,1178.623,345,1182.623,355,1186.623,351,1182.623" style="stroke:#181818;stroke-width:1.0;"/><line style="stroke:#181818;stroke-width:1.0;" x1="349" x2="464.5" y1="1182.623" y2="1182.623"/><text fill="#000000" font-family="sans-serif" font-size="13" lengthAdjust="spacing" textLength="52" x="361" y="1177.8809">&#36716;&#21457;&#28040;&#24687;</text><polygon fill="#181818" points="55,1207.9336,45,1211.9336,55,1215.9336,51,1211.9336" style="stroke:#181818;stroke-width:1.0;"/><line style="stroke:#181818;stroke-width:1.0;stroke-dasharray:2.0,2.0;" x1="49" x2="343" y1="1211.9336" y2="1211.9336"/><text fill="#000000" font-family="sans-serif" font-size="13" lengthAdjust="spacing" textLength="124" x="61" y="1207.1914">WebSocket &#23454;&#26102;&#25512;&#36865;</text><rect fill="#EEEEEE" height="3" style="stroke:#EEEEEE;stroke-width:1.0;" width="1548" x="0" y="1247.5889"/><line style="stroke:#000000;stroke-width:1.0;" x1="0" x2="1548" y1="1247.5889" y2="1247.5889"/><line style="stroke:#000000;stroke-width:1.0;" x1="0" x2="1548" y1="1250.5889" y2="1250.5889"/><rect fill="#EEEEEE" height="23.3105" style="stroke:#000000;stroke-width:2.0;" width="70" x="739" y="1236.9336"/><text fill="#000000" font-family="sans-serif" font-size="13" font-weight="bold" lengthAdjust="spacing" textLength="52" x="745" y="1253.502">&#29366;&#24577;&#26356;&#26032;</text><polygon fill="#181818" points="1201.5,1287.5547,1211.5,1291.5547,1201.5,1295.5547,1205.5,1291.5547" style="stroke:#181818;stroke-width:1.0;"/><line style="stroke:#181818;stroke-width:1.0;" x1="207" x2="1207.5" y1="1291.5547" y2="1291.5547"/><text fill="#000000" font-family="sans-serif" font-size="13" lengthAdjust="spacing" textLength="111" x="214" y="1286.8125">&#34892;&#20026;/&#20250;&#35805;&#25688;&#35201;&#20837;&#24211;</text><polygon fill="#181818" points="1290.5,1301.5547,1300.5,1305.5547,1290.5,1309.5547,1294.5,1305.5547" style="stroke:#181818;stroke-width:1.0;"/><line style="stroke:#181818;stroke-width:1.0;" x1="1213.5" x2="1296.5" y1="1305.5547" y2="1305.5547"/><polygon fill="#181818" points="1366.5,1330.8652,1376.5,1334.8652,1366.5,1338.8652,1370.5,1334.8652" style="stroke:#181818;stroke-width:1.0;"/><line style="stroke:#181818;stroke-width:1.0;" x1="1302.5" x2="1372.5" y1="1334.8652" y2="1334.8652"/><text fill="#000000" font-family="sans-serif" font-size="13" lengthAdjust="spacing" textLength="39" x="1309.5" y="1330.123">&#25345;&#20037;&#21270;</text><!--SRC=[TLLTJo9957tlNr7nQVV1i9b74ZT1pPf9d8HPCl5nqaZlsD4HGpThp6OJyBCH11pvy6FKPKRKP0VGsH6KbkNFT5KNJ_CNzbPNTGFYFj5qdLltt7lElQqjgiihSan-ZxG5EH9TLPVVeT_a9KsHDEzaILrMzBKL1KLZ-a9KakHvFHf3ax7eggR4aAoXCNANerS6FheUao14L-VL5NbPHu7Wovav1m1FTcSVR_tpmo-ofiE_7uUHSo47DgU4Gz7vHKMtwnKxlprouQzAHDL2yR03TlxG-gVUuTO8S7hAWU3TQv98akmLDfeZc3SXdjGkN1EZPUys6VJZ7jwj3ED20LxZnXRPFCV6DZdB3mEcPjyu2DezmUrBcZosRyqdl0Cpd79WXdnEsDy-3Hy7-Id9vUsBDctisOLpOZn9CZlxoW71B-_a4mxAaX9RU-r0-7Fl4CYMdxGv6biKal77CIaYwt9OrXGqFUcyVxKMUZtxJDU3eNxJKJ0Uze4COv8qCO6insFQECLcs_uxZIOc9DSOupzp0_YHVMJYJj4dWCOflahZJ4dYzW0OAE57DDl2kH8nIjWuOPSvgf3APr8n92RLUFy-sYtWapEXMy746xd1f7Dm6MVZsObspqYswh35kNrwrxBkZq5dscYHs_NdEUFQfVNmbmyt7e2pZpOsoLsQus40bdI4ynbIgz9M0_-x-VtHe1spjvFZWE-FAGaXhxhfAM1yTGc9kRlinnB9VW04cDGjdfny8wKRMg-GuWqaCw4JeZ24eYiwukQpxhFSOzo5a9PaKdQjP1UhT7UTt2LvPlVcKC2F1bth786RnmKfVcQR1-Jiuq0Os9crkEzbvuoPt0tahxr0PJdYLGCE1xrFxi6WzdcLDhPnxWje1LHnhj5Bf3X3DWyU2sSWxDGEgTzvrmJPBSuKU4C1Py61gCoEPLwGwmevxNfHC1jmahs6rS63uOJDZHiKU6dN2lXYJmGC69ILiWcUz6eIwW54MCCl5CS7UxXT00HC2CAFwym4-Gvk7pXTyaGNymXqSdchVO4YuRUhCLK7Yrcc2IRWFHL3oqphZ2F0qodGVW0ZHfPLC0aS7jRjMWfl7-6jgkYy0ilQ9UAwiLViqaIPb9l2k4ySsIUtM-mbFg3v1LdtQV7mUrNtXPK5-NSrEi3pcLQy-Ea5mgslE5U6LaC-NTOMtweHdkP_gy8FJPAwefKCWDx5el4LePKWwPqD5ZqWAOBTWCZN8xj-omCSgAklcuehw2FbAkwMFNFsBnJBpCyM0RxVu71itA1LpHzdnVsXHlva5XLBpms1TUT7LZjjcSrUuXYyxMBOvqXi7ThvmgQyQP1aWoKD3NVDMqS8ryz072YhbqXAZ27RJE8Bv6m2jfD6vOBsMFTjiKV9_Y6zJ88FcFT6UYuD-uPaajR35bkw_m40]--></g></svg>